# xmcd CD database file
#
# Track frame offsets:
#	150
#	18222
#	41622
#	69495
#	87620
#
# Disc length: 1479 seconds
#
# Revision: 0
# Processed by: cddbd v1.5PL3 Copyright (c) Steve Scherf et al.
# Submitted via: CDex 1.50beta8
#
DISCID=3905c505
DTITLE=hiro - Baby don't cry
DYEAR=2003
DGENRE=Pop
TTITLE0=Baby don't cry
TTITLE1=sunlight
TTITLE2=Baby don't cry(world's end girlfriend remix)
TTITLE3=Baby don't cry(Instrumental)
TTITLE4=sunlight(Instrumental)
EXTD=YEAR: 2003
EXTT0=
EXTT1=
EXTT2=
EXTT3=
EXTT4=
PLAYORDER=
